<svg width="137" height="18" viewBox="0 0 137 18" fill="none" xmlns="http://www.w3.org/2000/svg">
<path d="M133.047 13.5417C130.013 13.5417 128.496 12.615 128.496 10.7617V7.68057C128.496 6.60632 128.838 5.82719 129.523 5.34319C130.22 4.85919 131.288 4.61719 132.728 4.61719C134.086 4.61719 135.077 4.85329 135.703 5.32548C136.34 5.78588 136.659 6.57091 136.659 7.68057V9.77004H131.099V10.5492C131.099 11.045 131.276 11.3991 131.63 11.6116C131.984 11.8241 132.622 11.9303 133.543 11.9303C134.393 11.9303 135.349 11.8064 136.411 11.5585V13.2053C135.361 13.4296 134.239 13.5417 133.047 13.5417ZM134.198 8.30033V7.06081C134.198 6.77749 134.08 6.565 133.844 6.42334C133.619 6.28168 133.236 6.21085 132.693 6.21085C132.067 6.21085 131.648 6.28168 131.436 6.42334C131.211 6.57681 131.099 6.7893 131.099 7.06081V8.30033H134.198Z" fill="white"/>
<path d="M124.379 13.5417C123.93 13.5417 123.576 13.5299 123.317 13.5063C123.057 13.4945 122.738 13.465 122.36 13.4178C121.983 13.3705 121.67 13.2879 121.422 13.1699C121.186 13.0518 120.938 12.8747 120.678 12.6386C120.194 12.2373 119.952 11.5526 119.952 10.5846V7.73369C119.952 6.95457 120.129 6.30529 120.483 5.78588C120.613 5.597 120.802 5.42582 121.05 5.27236C121.31 5.10709 121.569 4.97724 121.829 4.8828C122.042 4.81197 122.325 4.75294 122.679 4.70572C123.033 4.6585 123.346 4.62899 123.618 4.61719H124.556C125.217 4.61719 126.085 4.72343 127.159 4.93592V6.63583C125.943 6.35251 125.011 6.21085 124.361 6.21085C123.169 6.21085 122.573 6.61222 122.573 7.41496V10.5669C122.573 11.4759 123.228 11.9303 124.538 11.9303C125.176 11.9303 126.091 11.8005 127.283 11.5408V13.2407C126.209 13.4414 125.241 13.5417 124.379 13.5417Z" fill="white"/>
<path d="M109.668 4.79426H112.218V5.839C112.419 5.02446 113.333 4.61719 114.962 4.61719C116.06 4.61719 116.828 4.81787 117.264 5.21924C117.713 5.6088 117.937 6.22856 117.937 7.07852V13.3646H115.352V7.41496C115.352 7.08442 115.317 6.83651 115.246 6.67125C115.187 6.50598 115.057 6.38793 114.856 6.3171C114.667 6.24627 114.372 6.21085 113.971 6.21085C113.463 6.21085 113.091 6.24627 112.855 6.3171C112.619 6.37612 112.46 6.48827 112.377 6.65354C112.295 6.81881 112.253 7.07261 112.253 7.41496V13.3646H109.668V4.79426Z" fill="white"/>
<path d="M102.105 13.5417C101.302 13.5417 100.7 13.4709 100.299 13.3292C99.9092 13.1758 99.6318 12.9102 99.4665 12.5324C99.3131 12.1428 99.2363 11.5644 99.2363 10.7971C99.2363 10.1124 99.319 9.57526 99.4842 9.1857C99.6613 8.79614 99.9387 8.51872 100.316 8.35345C100.706 8.17638 101.237 8.08784 101.91 8.08784H104.814V7.50349C104.814 7.13754 104.761 6.86603 104.655 6.68895C104.56 6.51188 104.377 6.38793 104.106 6.3171C103.846 6.24627 103.451 6.21085 102.919 6.21085C102.188 6.21085 101.184 6.28168 99.9092 6.42334V4.79426C100.842 4.67621 101.934 4.61719 103.185 4.61719C104.283 4.61719 105.127 4.69982 105.717 4.86509C106.319 5.03036 106.75 5.31368 107.01 5.71505C107.27 6.11641 107.399 6.70076 107.399 7.46808V13.3646H104.867V12.5855C104.667 12.9279 104.395 13.1699 104.053 13.3115C103.71 13.465 103.061 13.5417 102.105 13.5417ZM103.114 11.9303C103.634 11.9303 104.006 11.9126 104.23 11.8772C104.395 11.8536 104.507 11.8182 104.566 11.771C104.637 11.7238 104.696 11.647 104.743 11.5408C104.791 11.4581 104.814 11.3342 104.814 11.1689V9.50443H103.043C102.642 9.50443 102.359 9.53394 102.193 9.59297C102.028 9.64019 101.916 9.74643 101.857 9.9117C101.798 10.0652 101.768 10.3426 101.768 10.7439C101.768 11.1335 101.798 11.405 101.857 11.5585C101.916 11.712 102.028 11.8123 102.193 11.8595C102.371 11.9067 102.677 11.9303 103.114 11.9303Z" fill="white"/>
<path d="M89.1426 4.79426H91.6924V5.839C91.8931 5.02446 92.808 4.61719 94.4371 4.61719C95.535 4.61719 96.3023 4.81787 96.7391 5.21924C97.1876 5.6088 97.4119 6.22856 97.4119 7.07852V13.3646H94.8267V7.41496C94.8267 7.08442 94.7912 6.83651 94.7204 6.67125C94.6614 6.50598 94.5315 6.38793 94.3309 6.3171C94.142 6.24627 93.8468 6.21085 93.4455 6.21085C92.9379 6.21085 92.566 6.24627 92.3299 6.3171C92.0938 6.37612 91.9344 6.48827 91.8518 6.65354C91.7692 6.81881 91.7279 7.07261 91.7279 7.41496V13.3646H89.1426V4.79426Z" fill="white"/>
<path d="M78.545 6.39241H76.9336V4.79875H78.545V3.50611C78.545 2.80962 78.6571 2.26659 78.8814 1.87703C79.1175 1.47566 79.4717 1.19824 79.9439 1.04478C80.4279 0.879508 81.0712 0.796875 81.874 0.796875C82.2753 0.796875 82.7829 0.826386 83.3968 0.885411V2.47908C82.8892 2.42005 82.5173 2.39054 82.2812 2.39054C81.8444 2.39054 81.5434 2.46137 81.3782 2.60303C81.2129 2.73288 81.1303 2.98669 81.1303 3.36445V4.79875H83.3083V6.39241H81.1303V13.3691H78.545V6.39241ZM84.229 0.973948H86.8143V3.06342H84.229V0.973948ZM84.229 4.79875H86.8143V13.3691H84.229V4.79875Z" fill="white"/>
<path d="M68.2173 13.5417C65.1834 13.5417 63.6665 12.615 63.6665 10.7617V7.68057C63.6665 6.60632 64.0088 5.82719 64.6935 5.34319C65.39 4.85919 66.4584 4.61719 67.8986 4.61719C69.2561 4.61719 70.2478 4.85329 70.8734 5.32548C71.5109 5.78588 71.8296 6.57091 71.8296 7.68057V9.77004H66.2695V10.5492C66.2695 11.045 66.4466 11.3991 66.8007 11.6116C67.1549 11.8241 67.7923 11.9303 68.7131 11.9303C69.5631 11.9303 70.5193 11.8064 71.5817 11.5585V13.2053C70.5311 13.4296 69.4096 13.5417 68.2173 13.5417ZM69.3683 8.30033V7.06081C69.3683 6.77749 69.2502 6.565 69.0141 6.42334C68.7898 6.28168 68.4062 6.21085 67.8632 6.21085C67.2375 6.21085 66.8184 6.28168 66.6059 6.42334C66.3816 6.57681 66.2695 6.7893 66.2695 7.06081V8.30033H69.3683Z" fill="white"/>
<path d="M56.6082 17.2603C55.2152 17.2603 54.1823 17.219 53.5094 17.1363V15.401C54.6191 15.5545 55.652 15.6312 56.6082 15.6312C57.4818 15.6312 58.1074 15.4895 58.4852 15.2062C58.8629 14.9229 59.0518 14.4507 59.0518 13.7896V12.4084C58.8393 12.7154 58.6328 12.9515 58.4321 13.1167C58.2314 13.2702 57.9658 13.3764 57.6352 13.4355C57.3165 13.5063 56.8738 13.5417 56.3072 13.5417C55.469 13.5417 54.802 13.465 54.3062 13.3115C53.8104 13.1463 53.4504 12.8806 53.2261 12.5147C53.0018 12.1369 52.8896 11.6175 52.8896 10.9564V7.60974C52.8896 6.81881 52.99 6.21085 53.1907 5.78588C53.4032 5.3609 53.7573 5.05987 54.2531 4.8828C54.7607 4.70572 55.4867 4.61719 56.4311 4.61719C57.045 4.61719 57.5172 4.6526 57.8477 4.72343C58.1665 4.79426 58.4085 4.90051 58.5737 5.04217C58.739 5.18382 58.9279 5.42583 59.1404 5.76817V4.79426H61.6371V13.825C61.6371 15.0409 61.218 15.9145 60.3799 16.4457C59.5535 16.9888 58.2963 17.2603 56.6082 17.2603ZM57.228 11.9303C57.7356 11.9303 58.1133 11.8949 58.3612 11.8241C58.6209 11.7533 58.798 11.6411 58.8925 11.4877C58.9987 11.3224 59.0518 11.0922 59.0518 10.7971V7.34413C59.0518 7.02539 59.0046 6.7893 58.9102 6.63583C58.8157 6.47056 58.6328 6.35842 58.3612 6.29939C58.0897 6.24037 57.6647 6.21085 57.0863 6.21085C56.6141 6.21085 56.2659 6.24627 56.0416 6.3171C55.8173 6.38793 55.6638 6.51188 55.5812 6.68895C55.5103 6.85422 55.4749 7.10213 55.4749 7.43266V10.7085C55.4749 11.0745 55.5103 11.3401 55.5812 11.5054C55.6638 11.6588 55.8232 11.771 56.0593 11.8418C56.2954 11.9008 56.6849 11.9303 57.228 11.9303Z" fill="white"/>
<path d="M46.1016 4.79426H48.5629V6.29939C48.5629 6.02788 48.675 5.76227 48.8993 5.50256C49.1236 5.24285 49.4069 5.03036 49.7493 4.86509C50.1034 4.69982 50.4517 4.61719 50.794 4.61719H51.7148V6.75978H50.8294C50.0975 6.75978 49.5545 6.87193 49.2004 7.09622C48.858 7.32052 48.6868 7.69237 48.6868 8.21179V13.3646H46.1016V4.79426Z" fill="white"/>
<path d="M38.5496 13.5443C37.4517 13.5443 36.6785 13.3496 36.2299 12.96C35.7931 12.5586 35.5747 11.933 35.5747 11.083V4.79688H38.16V10.7289C38.16 11.0594 38.1895 11.3073 38.2485 11.4726C38.3194 11.6378 38.4492 11.7559 38.6381 11.8267C38.8388 11.8975 39.1398 11.933 39.5412 11.933C40.0488 11.933 40.4206 11.9034 40.6567 11.8444C40.8928 11.7736 41.0522 11.6555 41.1348 11.4903C41.2175 11.325 41.2588 11.0712 41.2588 10.7289V4.79688H43.8441V13.3673H41.2942V12.3225C41.1053 13.1371 40.1904 13.5443 38.5496 13.5443Z" fill="white"/>
<path d="M29.4737 13.5417C28.553 13.5417 27.4256 13.4532 26.0916 13.2761V11.5585C27.7325 11.8064 28.8717 11.9303 29.5092 11.9303C30.0522 11.9303 30.4535 11.8772 30.7133 11.771C30.973 11.6647 31.1028 11.47 31.1028 11.1866V10.6554C31.1028 10.3603 31.0202 10.1537 30.8549 10.0357C30.6896 9.9058 30.365 9.84087 29.881 9.84087H28.7654C27.8565 9.84087 27.1541 9.6638 26.6583 9.30965C26.1625 8.9437 25.9146 8.41247 25.9146 7.71598V6.67125C25.9146 5.92754 26.2687 5.40222 26.977 5.09529C27.6853 4.77655 28.7536 4.61719 30.182 4.61719C30.7487 4.61719 31.7639 4.67031 33.2277 4.77655V6.42334C31.3861 6.28168 30.3473 6.21085 30.1112 6.21085C29.4147 6.21085 28.9602 6.25807 28.7477 6.35251C28.5589 6.45876 28.4644 6.65354 28.4644 6.93686V7.39725C28.4644 7.55071 28.5411 7.68647 28.6946 7.80452C28.8481 7.91076 29.0724 7.96389 29.3675 7.96389H30.5008C32.602 7.96389 33.6527 8.64857 33.6527 10.0179V11.0981C33.6527 11.5113 33.576 11.8713 33.4225 12.1783C33.269 12.4852 33.0683 12.7272 32.8204 12.9043C32.5843 13.0695 32.2774 13.1994 31.8997 13.2938C31.5337 13.3883 31.15 13.4532 30.7487 13.4886C30.3827 13.524 29.9577 13.5417 29.4737 13.5417Z" fill="white"/>
<path fill-rule="evenodd" clip-rule="evenodd" d="M5.43534 5.13543V0.00115056L14.8686 8.78655L5.43534 17.5719L5.43534 12.4354L0 17.5708L6.17908e-07 0L5.43534 5.13543Z" fill="white"/>
</svg>
