<svg width="45" height="47" viewBox="0 0 45 47" fill="none" xmlns="http://www.w3.org/2000/svg">
<path d="M3.17832 42.8363C3.1763 43.6794 3.51396 44.4882 4.11245 45.0806C4.71702 45.6872 5.54193 46.0228 6.39924 46.0147H20.6334V22.2188H3.17817L3.17832 42.8363Z" fill="#1E252D"/>
<path d="M23.7956 46.0145H38.0298C38.8729 46.0125 39.6797 45.6769 40.2741 45.0804C40.8726 44.488 41.2082 43.6792 41.2082 42.8361V22.2188H23.7954L23.7956 46.0145Z" fill="#1E252D"/>
<path d="M42.8317 9.51911H32.7668H32.7688C33.3632 8.56273 33.6908 7.4669 33.7171 6.34069V4.75956C33.7171 2.1311 31.586 3.89026e-06 28.9575 3.89026e-06H26.974C25.1503 -0.0020184 23.4155 0.784489 22.2145 2.15739C21.0135 0.784541 19.2787 -0.00201478 17.4549 3.89026e-06H15.4714C12.843 3.89026e-06 10.7119 2.1311 10.7119 4.75956V6.34069C10.72 7.46085 11.0293 8.55874 11.6036 9.51911H1.53869C0.67936 9.54944 0 10.2551 0 11.1144V17.4551C0.00808762 18.3305 0.719785 19.0362 1.59728 19.0362H42.832C43.7095 19.0362 44.4212 18.3305 44.4293 17.4551V11.1144C44.4293 10.6918 44.2614 10.2854 43.9602 9.98615C43.6609 9.68691 43.2563 9.51911 42.8317 9.51911ZM23.7956 6.34069C23.8037 4.59175 25.2251 3.17842 26.974 3.17842H28.9575C29.831 3.17842 30.5386 3.8861 30.5386 4.75956V6.34069C30.5386 8.08964 29.1253 9.51104 27.3764 9.51911H23.7956L23.7956 6.34069ZM13.8881 4.75956H13.8901C13.8901 3.8861 14.5978 3.17842 15.4712 3.17842H17.4547C19.2037 3.17842 20.6251 4.59175 20.6331 6.34069V9.51911H17.0523C15.3034 9.51103 13.89 8.08964 13.89 6.34069L13.8881 4.75956Z" fill="#1E252D"/>
</svg>
