<svg width="39" height="49" viewBox="0 0 39 49" fill="none" xmlns="http://www.w3.org/2000/svg">
<path d="M32.6276 18.0111V13.2389C32.6276 5.95239 26.7141 0 19.4752 0C12.2363 0 6.32278 5.95239 6.32278 13.2389V18.0111C2.7543 18.319 0.00146484 21.2952 0.00146484 24.9898V41.7181C0.00146484 45.6179 3.11114 48.748 6.9855 48.748H32.0159C35.8902 48.748 38.9999 45.6179 38.9999 41.7181V24.9898C38.9999 21.2952 36.1961 18.319 32.6276 18.0111ZM22.5339 39.4603C22.6359 39.9734 22.279 40.4352 21.7692 40.4352H17.1302C16.6204 40.4352 16.2636 39.9734 16.3655 39.4603L17.8949 33.4052C16.6204 32.8408 15.7028 31.5579 15.7028 30.0185C15.7028 27.966 17.3851 26.2726 19.4242 26.2726C21.4634 26.2726 23.1456 27.966 23.1456 30.0185C23.1456 31.5066 22.228 32.7895 20.9536 33.4052L22.5339 39.4603ZM25.9494 17.9598H13.0009V13.2903C13.0009 9.6983 15.9067 6.77341 19.4752 6.77341C23.0437 6.77341 25.9494 9.6983 25.9494 13.2903V17.9598Z" fill="#2BE8A3"/>
</svg>
