<svg width="18" height="15" viewBox="0 0 18 15" fill="none" xmlns="http://www.w3.org/2000/svg">
<path d="M17.5375 2.79143H17.7712L17.7719 2.79355V0.833061H11.5398L9.32737 9.32098H9.25421L7.06145 0.828125H0.811035V2.78861H1.04745C1.14076 2.78659 1.23351 2.80424 1.3201 2.84049C1.4067 2.87674 1.48536 2.93085 1.55136 2.99955C1.61736 3.06826 1.66933 3.15015 1.70415 3.2403C1.73897 3.33045 1.75592 3.427 1.75398 3.52415V11.8604C1.75591 11.9573 1.73904 12.0537 1.70439 12.1436C1.66973 12.2336 1.618 12.3153 1.5523 12.384C1.48659 12.4527 1.40826 12.5068 1.32198 12.5433C1.2357 12.5797 1.14325 12.5976 1.05016 12.596H0.813745V14.5586H5.52306V12.596H4.58215V3.47549H4.67495L7.53631 14.56H10.08L12.9657 3.47619H13.0612V12.5974H12.1183V14.56H17.7739V12.5974H17.5375C17.4442 12.5994 17.3515 12.5818 17.2649 12.5455C17.1783 12.5093 17.0996 12.4552 17.0336 12.3865C16.9676 12.3177 16.9156 12.2359 16.8808 12.1457C16.846 12.0556 16.829 11.959 16.831 11.8619V3.52697C16.829 3.42982 16.846 3.33327 16.8808 3.24312C16.9156 3.15297 16.9676 3.07108 17.0336 3.00237C17.0996 2.93367 17.1783 2.87956 17.2649 2.84331C17.3515 2.80706 17.4442 2.78942 17.5375 2.79143Z" fill="white"/>
</svg>
