<svg width="34" height="52" viewBox="0 0 34 52" fill="none" xmlns="http://www.w3.org/2000/svg">
<path fill-rule="evenodd" clip-rule="evenodd" d="M26 25.5C26 30.7467 21.7467 35 16.5 35C11.2533 35 7 30.7467 7 25.5C7 20.2533 11.2533 16 16.5 16C21.7467 16 26 20.2533 26 25.5ZM23.7884 25.5287C23.7884 29.5381 20.5381 32.7884 16.5287 32.7884C12.5193 32.7884 9.26897 29.5381 9.26897 25.5287C9.26897 21.5193 12.5193 18.269 16.5287 18.269C20.5381 18.269 23.7884 21.5193 23.7884 25.5287ZM16.5287 31.9376C20.0682 31.9376 22.9376 29.0682 22.9376 25.5287C22.9376 21.9891 20.0682 19.1197 16.5287 19.1197C12.9891 19.1197 10.1197 21.9891 10.1197 25.5287C10.1197 29.0682 12.9891 31.9376 16.5287 31.9376ZM15.6059 29.2039V30.5684H17.3531V29.1932C17.4302 29.1826 17.5068 29.1705 17.5832 29.157C17.9331 29.0949 18.2615 29.0017 18.5683 28.8776C18.8751 28.7534 19.1459 28.5957 19.3808 28.4047C19.6157 28.2089 19.7978 27.9796 19.9273 27.7169C20.0615 27.4542 20.1286 27.1533 20.1286 26.8141C20.1286 26.4846 20.0591 26.2028 19.9201 25.9687C19.7811 25.7347 19.5965 25.5388 19.3664 25.3812C19.1363 25.2236 18.8775 25.0946 18.5899 24.9943C18.307 24.894 18.0194 24.8152 17.727 24.7579C17.4346 24.7006 17.1614 24.6528 16.9073 24.6146C16.5622 24.5573 16.2626 24.5024 16.0085 24.4498C15.7545 24.3973 15.5579 24.3352 15.4189 24.2635C15.2847 24.1871 15.2176 24.0892 15.2176 23.9698C15.2176 23.879 15.2511 23.8026 15.3182 23.7405C15.3901 23.6737 15.486 23.6211 15.6059 23.5829C15.7257 23.5399 15.8575 23.5089 16.0013 23.4898C16.1499 23.4659 16.3009 23.4539 16.4543 23.4539C16.6413 23.4539 16.821 23.4731 16.9936 23.5113C17.171 23.5447 17.3339 23.5925 17.4825 23.6546C17.6311 23.7166 17.7606 23.7907 17.8708 23.8767C17.9859 23.9579 18.0745 24.0486 18.1369 24.1489L19.9129 23.0169C19.7595 22.8163 19.5318 22.6205 19.2298 22.4294C18.9278 22.2336 18.5563 22.0736 18.1153 21.9494C17.8797 21.8805 17.6256 21.83 17.3531 21.7979V20.5379H15.6059V21.8304C15.5963 21.8318 15.5867 21.8333 15.5771 21.8347C15.2415 21.8873 14.9228 21.9709 14.6208 22.0855C14.3236 22.1954 14.0599 22.3387 13.8298 22.5154C13.5997 22.6873 13.42 22.8927 13.2906 23.1315C13.1611 23.3704 13.0964 23.645 13.0964 23.9555C13.0964 24.328 13.1731 24.648 13.3265 24.9155C13.4799 25.1782 13.686 25.3956 13.9449 25.5675C14.2085 25.7395 14.5057 25.8756 14.8365 25.9759C15.1672 26.0762 15.5052 26.1526 15.8503 26.2052C16.3153 26.272 16.7012 26.3413 17.008 26.4129C17.3148 26.4798 17.5449 26.5586 17.6982 26.6494C17.8516 26.7353 17.9283 26.8404 17.9283 26.9646C17.9283 27.0601 17.8924 27.1437 17.8205 27.2154C17.7534 27.2822 17.6551 27.3396 17.5257 27.3873C17.401 27.4303 17.2572 27.4637 17.0943 27.4876C16.9361 27.5115 16.7659 27.5234 16.5837 27.5234C16.3776 27.5234 16.1811 27.5091 15.9941 27.4805C15.8072 27.4518 15.6346 27.4064 15.4764 27.3443C15.3182 27.2775 15.1768 27.1963 15.0522 27.1007C14.9276 27.0052 14.8197 26.893 14.7286 26.764L12.8951 27.9462C13.1204 28.2327 13.4032 28.4716 13.7436 28.6626C14.0887 28.8537 14.4913 28.9994 14.9515 29.0997C15.1587 29.1443 15.3768 29.1791 15.6059 29.2039Z" fill="#4B5157"/>
</svg>
