<svg width="26" height="26" viewBox="0 0 26 26" fill="none" xmlns="http://www.w3.org/2000/svg">
<path d="M19.5464 17.9822C13.1857 17.9822 7.98571 12.8378 7.98571 6.44207C7.98571 4.07843 8.72857 1.85383 9.93571 0C4.225 1.48307 0 6.6738 0 12.8378C0 20.1141 5.89643 26 13.1857 26C19.3607 26 24.5607 21.7825 26 16.0357C24.1429 17.287 21.9607 17.9822 19.5464 17.9822ZM13.1857 24.1462C6.96429 24.1462 1.85714 19.0481 1.85714 12.8378C1.85714 9.17647 3.62143 5.83957 6.45357 3.75401C6.26786 4.63458 6.175 5.5615 6.175 6.48841C6.175 13.8574 12.2107 19.8824 19.5929 19.8824C20.5214 19.8824 21.45 19.7897 22.3321 19.6043C20.2429 22.385 16.9 24.1462 13.1857 24.1462Z" fill="#D9D9D9"/>
</svg>
