<svg width="22" height="24" viewBox="0 0 22 24" fill="none" xmlns="http://www.w3.org/2000/svg">
<path d="M20.5243 9.00188V17.3722L11.1206 22.7457L1.71041 17.3722V6.61867L11.1206 1.23869L18.3512 5.37217L19.441 4.75214L11.1206 -0.0078125L0.620605 5.99219V17.9922L11.1206 23.9922L21.6206 17.9922V8.3754L20.5243 9.00188Z" fill="white"/>
<path d="M8.48419 17.3722H6.91147V12.1472H12.1582C12.6542 12.1407 13.1305 11.9405 13.4764 11.5918C13.8288 11.243 14.0246 10.7715 14.0246 10.2807C14.0246 10.0352 13.9789 9.79628 13.8875 9.57023C13.7897 9.34418 13.6526 9.14396 13.4764 8.97604C13.3067 8.80166 13.0979 8.66603 12.876 8.56915C12.6476 8.47227 12.4062 8.42706 12.1582 8.42706H6.91147V6.83826H12.1647C13.0849 6.84472 13.9659 7.2064 14.6119 7.85225C15.2645 8.49811 15.6299 9.37001 15.6365 10.2742C15.643 10.9717 15.4276 11.6499 15.023 12.2182C14.6511 12.7608 14.1225 13.187 13.509 13.4454C12.9021 13.6391 12.2691 13.7295 11.6296 13.7231H8.48419V17.3722Z" fill="white"/>
<path d="M15.6038 17.243H13.7701L12.354 14.7952C12.9152 14.7629 13.4699 14.6467 13.9985 14.4658L15.6038 17.243Z" fill="white"/>
<path d="M19.4279 7.25807L20.5177 7.85871L21.601 7.26452V6.00511L20.5177 5.38508L19.4345 6.00511V7.25807H19.4279Z" fill="white"/>
</svg>
