<svg width="20" height="17" viewBox="0 0 20 17" fill="none" xmlns="http://www.w3.org/2000/svg">
<path d="M19.8843 2.13827L16.962 15.8303V15.8283C16.7369 16.8026 16.2003 17.0527 15.352 16.5786L10.8989 13.3183L8.75118 15.3726C8.639 15.5011 8.50195 15.6058 8.3482 15.6805C8.19445 15.7552 8.02715 15.7984 7.85625 15.8075L8.17418 11.3036L16.4268 3.89357C16.5725 3.76182 16.5989 3.66322 16.506 3.59777C16.3599 3.49289 16.1477 3.53255 15.8695 3.71674L5.67058 10.0983L1.27701 8.73301C1.02573 8.68311 0.80028 8.54657 0.640482 8.3475C0.589459 8.26763 0.566649 8.17316 0.575652 8.07898C0.584654 7.98481 0.624958 7.89629 0.690201 7.82741C0.90214 7.59538 1.17346 7.42484 1.47523 7.33397L18.6511 0.75483C18.8157 0.671242 19.002 0.639706 19.1852 0.66446C19.3683 0.689214 19.5394 0.769071 19.6756 0.893304C19.8139 1.06613 19.9056 1.27112 19.9421 1.48894C19.9786 1.70675 19.9587 1.93022 19.8843 2.13827Z" fill="white"/>
</svg>
