<svg width="18" height="18" viewBox="0 0 18 18" fill="none" xmlns="http://www.w3.org/2000/svg">
<path d="M0.0634324 17.0228C2.28795 14.6407 4.51247 12.2577 6.75015 9.86161C4.50423 6.85098 2.28136 3.87004 0.0107422 0.825588C0.180339 0.810741 0.290659 0.79177 0.400979 0.79177C1.80056 0.79012 3.20015 0.799193 4.59973 0.782696C4.89859 0.779397 5.0723 0.889924 5.2419 1.1184C6.58303 2.92726 7.93404 4.72951 9.2834 6.53259C9.35668 6.63075 9.43406 6.72478 9.53862 6.85758C9.95026 6.42454 10.3487 6.01377 10.739 5.59559C12.0883 4.15131 13.4476 2.71528 14.7739 1.24955C15.0909 0.898998 15.4078 0.724958 15.8722 0.785171C16.0829 0.81239 16.3011 0.79012 16.646 0.79012C14.4479 3.15244 12.3312 5.42649 10.1791 7.73932C12.4917 10.839 14.8002 13.933 17.1524 17.0855C16.9647 17.1028 16.8617 17.1201 16.758 17.1209C15.4136 17.1226 14.0683 17.1053 12.7239 17.1317C12.323 17.1391 12.0785 17.017 11.8405 16.692C10.4706 14.8188 9.07676 12.963 7.69035 11.1022C7.60143 10.9826 7.50264 10.8704 7.37997 10.7203C6.74275 11.3999 6.12446 12.0565 5.50946 12.7155C4.22596 14.0913 2.95069 15.4746 1.65402 16.8364C1.50665 16.9915 1.24485 17.0764 1.02256 17.1119C0.731117 17.1581 0.426501 17.1234 0.127649 17.1234C0.106243 17.0904 0.0848379 17.0566 0.0634324 17.0236V17.0228ZM2.14634 1.86405C2.26819 2.04386 2.33158 2.14532 2.40321 2.241C3.14252 3.23079 3.88265 4.21977 4.62279 5.20956C7.23754 8.70602 9.85065 12.2025 12.4687 15.6965C12.5625 15.8218 12.6976 16.0033 12.8194 16.0074C13.5505 16.0363 14.2832 16.0223 15.0818 16.0223C14.9476 15.8317 14.8645 15.7097 14.7764 15.5909C13.469 13.8431 12.1608 12.0953 10.8534 10.3474C8.81413 7.62054 6.7765 4.89283 4.73146 2.17089C4.63431 2.04139 4.46966 1.88385 4.33134 1.87807C3.63484 1.84838 2.93587 1.86405 2.14717 1.86405H2.14634Z" fill="white"/>
</svg>
